<svg width="24" height="24" viewBox="0 0 24 24" fill="none" xmlns="http://www.w3.org/2000/svg">
  <path d="M10.0075 4.7748C9.98656 4.55043 10.0096 4.32383 10.0751 4.10961C10.1405 3.8954 10.247 3.69832 10.3876 3.5311C10.5283 3.36388 10.6999 3.23022 10.8915 3.13874C11.0831 3.04726 11.2904 3 11.5 3C11.7096 3 11.9169 3.04726 12.1085 3.13874C12.3001 3.23022 12.4717 3.36388 12.6124 3.5311C12.753 3.69832 12.8595 3.8954 12.9249 4.10961C12.9904 4.32383 13.0134 4.55043 12.9925 4.7748L12.4105 15.0214C12.388 15.2644 12.2824 15.4897 12.1141 15.6536C11.9459 15.8174 11.727 15.9082 11.5 15.9082C11.273 15.9082 11.0541 15.8174 10.8859 15.6536C10.7176 15.4897 10.612 15.2644 10.5895 15.0214L10.0075 4.7748ZM10 19.1362C10 18.7082 10.158 18.2978 10.4393 17.9952C10.7206 17.6925 11.1022 17.5225 11.5 17.5225C11.8978 17.5225 12.2794 17.6925 12.5607 17.9952C12.842 18.2978 13 18.7082 13 19.1362C13 19.5641 12.842 19.9746 12.5607 20.2772C12.2794 20.5798 11.8978 20.7498 11.5 20.7498C11.1022 20.7498 10.7206 20.5798 10.4393 20.2772C10.158 19.9746 10 19.5641 10 19.1362Z" fill="#5EA6C4"/>
</svg>
